# xmcd CD database file
# Copyright (C) 1993-1998 Ti Kan
#
# Track frame offsets:
#	150
#	15341
#	35384
#	64608
#	85530
#	113413
#	135610
#	155879
#	174209
#	196104
#	217609
#
# Disc length: 3191 seconds
#
# Revision: 0
# Processed by: cddbd v1.4b41PL1 Copyright (c) Steve Scherf et al.
# Submitted via: CDmax 1.5.4
#
DISCID=760c750b
DTITLE=Mel Melton and The Wicked Mojos - Swamp Slinger
DYEAR=1900
DGENRE=
TTITLE0=Cher Catin
TTITLE1=Opelousa's Blues
TTITLE2=French Quarter Rain
TTITLE3=Love Attack
TTITLE4=Devil Moon
TTITLE5=Two Lives
TTITLE6=Catahoula
TTITLE7=Tante Na-Na
TTITLE8=Chicago Train
TTITLE9=Backdoor Cajun Man
TTITLE10=Swamp Slinger
EXTD=
EXTT0=
EXTT1=
EXTT2=
EXTT3=
EXTT4=
EXTT5=
EXTT6=
EXTT7=
EXTT8=
EXTT9=
EXTT10=
PLAYORDER=
